<?xml version="1.0" encoding="utf-8"?>
<!-- Generator: Adobe Illustrator 27.3.1, SVG Export Plug-In . SVG Version: 6.00 Build 0)  -->
<svg version="1.1" id="Layer_1" xmlns="http://www.w3.org/2000/svg" xmlns:xlink="http://www.w3.org/1999/xlink" x="0px" y="0px"
	 viewBox="0 0 960 640" style="enable-background:new 0 0 960 640;" xml:space="preserve">
<style type="text/css">
	.st0{clip-path:url(#SVGID_00000176026897069817062680000000053152171530857856_);fill:none;stroke:#000000;stroke-miterlimit:10;}
</style>
<g>
	<g>
		<g>
			<defs>
				<rect id="SVGID_1_" width="960" height="640"/>
			</defs>
			<clipPath id="SVGID_00000122711952381983309350000013942213917805166987_">
				<use xlink:href="#SVGID_1_"  style="overflow:visible;"/>
			</clipPath>
			
				<path style="clip-path:url(#SVGID_00000122711952381983309350000013942213917805166987_);fill:none;stroke:#000000;stroke-miterlimit:10;" d="
				M585.8,290c0,71.2-57.8,129-129,129s-129-57.8-129-129s57.8-129,129-129S585.8,218.8,585.8,290z M735.8,45.5
				c-11.8,0-22.9,3.3-32.4,9.1c-18,10.9-29.9,30.7-29.9,53.2c0,34.4,27.9,62.3,62.3,62.3c14.2,0,27.3-4.8,37.8-12.8
				c14.9-11.4,24.5-29.3,24.5-49.5c0-12.6-3.8-24.4-10.2-34.2C776.8,56.7,757.6,45.5,735.8,45.5z M693.2,458.3
				c-23.6,0-42.7,19.1-42.7,42.7c0,23.6,19.1,42.7,42.7,42.7c4.2,0,8.3-0.6,12.1-1.7c17.7-5.2,30.6-21.6,30.6-41
				c0-17.6-10.6-32.7-25.9-39.3C704.8,459.5,699.1,458.3,693.2,458.3z M139.6,148.2c-23.6,0-42.7,19.1-42.7,42.7
				s19.1,42.7,42.7,42.7s42.7-19.1,42.7-42.7S163.1,148.2,139.6,148.2z M235.8,423.7c-23.6,0-42.7,19.1-42.7,42.7
				c0,23.6,19.1,42.7,42.7,42.7s42.7-19.1,42.7-42.7S259.2,423.7,235.8,423.7z M456.9,133.2c-86.6,0-156.8,70.2-156.8,156.8
				s70.2,156.8,156.8,156.8S613.7,376.6,613.7,290S543.4,133.2,456.9,133.2z M96.9,199c0,0,18.6,46.8,39.8,99.7
				c27.9,69.6,60.3,149.7,61.2,148.1c1.6-2.8,208-164.8,208-164.8l58,117l39-182l-113.1-68.8l-82,93.1l20.1,4.7l-162-85l-35,60
				l-26.3-54.5l74.7,39.9L216.9,427l43.8,74L199,488.2L397.9,414l54,44.3L336.9,563l46-27l-63-7l44,34l286.7-80l7.1,34.8l5.2,25.8
				c0,0-215,43.4-215,40.4s9-165,9-165l73.3,9.7l39.6-76.1l33-4.8L693.2,161V67l74.7,59l-32-70l60.8,38l-93.4,67h57.6l-42.7,305.4
				l0.3,69l-38.6-69l53.5,20.1c0,0-40,40.5-47.5,47.5s-17.6-67.6-17.6-67.6L441.9,270l28-162.1l23.9,58.5l79.8,18.9l2.3,39.7
				l37.1,49.8L573.8,290l-222-65l-46,81L130.7,149.1L341,395.6l11.6-29.7L502.9,182l170.7-74.1l-524.5,41.4"/>
		</g>
	</g>
</g>
</svg>
