<?xml version="1.0" encoding="utf-8"?>
<!-- Generator: Adobe Illustrator 27.3.1, SVG Export Plug-In . SVG Version: 6.00 Build 0)  -->
<svg version="1.1" id="Layer_1" xmlns="http://www.w3.org/2000/svg" xmlns:xlink="http://www.w3.org/1999/xlink" x="0px" y="0px"
	 viewBox="0 0 960 640" style="enable-background:new 0 0 960 640;" xml:space="preserve">
<style type="text/css">
	.st0{clip-path:url(#SVGID_00000075155174490186713770000018237983685055483561_);fill:none;stroke:#000000;stroke-miterlimit:10;}
</style>
<g>
	<g>
		<g>
			<defs>
				<rect id="SVGID_1_" width="960" height="640"/>
			</defs>
			<clipPath id="SVGID_00000020357137198561225830000018434698195129343648_">
				<use xlink:href="#SVGID_1_"  style="overflow:visible;"/>
			</clipPath>
			
				<circle style="clip-path:url(#SVGID_00000020357137198561225830000018434698195129343648_);fill:none;stroke:#000000;stroke-miterlimit:10;" cx="480" cy="320" r="129"/>
			
				<circle style="clip-path:url(#SVGID_00000020357137198561225830000018434698195129343648_);fill:none;stroke:#000000;stroke-miterlimit:10;" cx="759" cy="137.9" r="62.3"/>
			
				<circle style="clip-path:url(#SVGID_00000020357137198561225830000018434698195129343648_);fill:none;stroke:#000000;stroke-miterlimit:10;" cx="716.3" cy="531" r="42.7"/>
			
				<circle style="clip-path:url(#SVGID_00000020357137198561225830000018434698195129343648_);fill:none;stroke:#000000;stroke-miterlimit:10;" cx="162.7" cy="220.9" r="42.7"/>
			
				<circle style="clip-path:url(#SVGID_00000020357137198561225830000018434698195129343648_);fill:none;stroke:#000000;stroke-miterlimit:10;" cx="258.9" cy="496.4" r="42.7"/>
			
				<circle style="clip-path:url(#SVGID_00000020357137198561225830000018434698195129343648_);fill:none;stroke:#000000;stroke-miterlimit:10;" cx="480" cy="320" r="156.8"/>
			
				<path style="clip-path:url(#SVGID_00000020357137198561225830000018434698195129343648_);fill:none;stroke:#000000;stroke-miterlimit:10;" d="
				M120,229c0,0,18.6,46.8,39.8,99.7c27.9,69.6,60.3,149.7,61.2,148.1C222.6,474,429,312,429,312l58,117l39-182l-113.1-68.8
				l-82,93.1L351,276l-162-85l-35,60l-26.3-54.5l74.7,39.9L240,457l43.8,74l-61.6-12.8L421,444l54,44.3L360,593l46-27l-63-7l44,34
				l286.7-80l7.1,34.8l5.2,25.8c0,0-215,43.4-215,40.4s9-165,9-165l73.3,9.7l39.6-76.1l33-4.8L716.3,191V97l74.7,59l-32-70l60.8,38
				l-93.4,67H784l-42.7,305.4l0.3,69l-38.6-69l53.5,20.1c0,0-40,40.5-47.5,47.5s-17.6-67.6-17.6-67.6L465,300l28-162.1l23.9,58.5
				l79.8,18.9L599,255l37.1,49.8L597,320l-222-65l-46,81L153.8,179.1l210.3,246.5l11.6-29.7L526,212l170.7-74.1l-524.5,41.4"/>
		</g>
	</g>
</g>
</svg>
