<?xml version="1.0" encoding="utf-8"?>
<!-- Generator: Adobe Illustrator 27.3.1, SVG Export Plug-In . SVG Version: 6.00 Build 0)  -->
<svg version="1.1" id="Layer_1" xmlns="http://www.w3.org/2000/svg" xmlns:xlink="http://www.w3.org/1999/xlink" x="0px" y="0px"
	 viewBox="0 0 960 640" style="enable-background:new 0 0 960 640;" xml:space="preserve">
<style type="text/css">
	.st0{fill:none;stroke:#000000;stroke-miterlimit:10;}
</style>
<circle class="st0" cx="467.6" cy="343.4" r="217.5"/>
<circle class="st0" cx="516.2" cy="361.8" r="217.5"/>
<circle class="st0" cx="640.7" cy="254.3" r="217.5"/>
<circle class="st0" cx="802.6" cy="465.5" r="108.8"/>
<circle class="st0" cx="304.7" cy="494.5" r="108.8"/>
<circle class="st0" cx="173.7" cy="218.4" r="125"/>
<line class="st0" x1="32" y1="21" x2="456" y2="302"/>
<line class="st0" x1="149" y1="17" x2="58" y2="118"/>
<line class="st0" x1="34" y1="50" x2="91" y2="13"/>
<line class="st0" x1="62.5" y1="9" x2="164" y2="44"/>
<line class="st0" x1="48.7" y1="87" x2="68" y2="238"/>
<line class="st0" x1="90" y1="343.4" x2="524" y2="287"/>
<line class="st0" x1="485" y1="320" x2="161" y2="471.8"/>
<line class="st0" x1="358" y1="621" x2="383" y2="356.8"/>
<line class="st0" x1="797" y1="226" x2="869" y2="451"/>
<line class="st0" x1="854" y1="108" x2="585" y2="266"/>
<line class="st0" x1="505" y1="49" x2="559" y2="192"/>
<line class="st0" x1="802.6" y1="499" x2="634" y2="443"/>
</svg>
