<svg xmlns="http://www.w3.org/2000/svg" width="148" height="148" viewBox="0 0 148 148">
  <g id="Group_4283" data-name="Group 4283" transform="translate(16387 -10203)">
    <circle id="Ellipse_357" data-name="Ellipse 357" cx="74" cy="74" r="74" transform="translate(-16387 10203)" fill="none"/>
    <g id="Path_2514" data-name="Path 2514" transform="translate(-16363 10227)" fill="none">
      <path d="M50-20S99.466,9.239,100,50A50,50,0,0,1,0,50C0,10.336,50-20,50-20Z" stroke="none"/>
      <path d="M 49.99697494506836 -8.021354675292969 C 35.38648986816406 2.306053161621094 10 25.3687629699707 10 50 C 10 72.05607604980469 27.94392395019531 90 50 90 C 72.05607604980469 90 90 72.05607604980469 90.00084686279297 50.13105010986328 C 89.64125061035156 22.69034576416016 61.72597122192383 0.21771240234375 49.99697494506836 -8.021354675292969 M 50 -20 C 50 -20 99.46582794189453 9.239250183105469 100 50 C 100 77.61422729492188 77.61422729492188 100 50 100 C 22.38577270507812 100 0 77.61422729492188 0 50 C 0 10.33607482910156 50 -20 50 -20 Z" stroke="none" fill="#fff"/>
    </g>
    <g id="Ellipse_358" data-name="Ellipse 358" transform="translate(-16347 10243)" fill="none" stroke="#fff" stroke-width="10">
      <circle cx="34" cy="34" r="34" stroke="none"/>
      <circle cx="34" cy="34" r="29" fill="none"/>
    </g>
    <g id="Ellipse_359" data-name="Ellipse 359" transform="translate(-16331 10260)" fill="none" stroke="#fff" stroke-width="10">
      <circle cx="18" cy="18" r="18" stroke="none"/>
      <circle cx="18" cy="18" r="13" fill="none"/>
    </g>
  </g>
</svg>
