<?xml version="1.0" encoding="utf-8"?>
<!-- Generator: Adobe Illustrator 27.3.1, SVG Export Plug-In . SVG Version: 6.00 Build 0)  -->
<svg version="1.1" id="Layer_1" xmlns="http://www.w3.org/2000/svg" xmlns:xlink="http://www.w3.org/1999/xlink" x="0px" y="0px"
	 viewBox="0 0 316.9 126.7" style="enable-background:new 0 0 316.9 126.7;" xml:space="preserve">
<style type="text/css">
	.st0{enable-background:new    ;}
	.st1{fill:#282828;}
</style>
<g>
	<g class="st0">
		<path class="st1" d="M35,37.5c3,1.6,5.2,3.7,6.9,6.3v-7.9h17.1v55.7c0,5.1-1,9.8-3.1,13.9c-2,4.2-5.1,7.5-9.3,10
			c-4.2,2.5-9.4,3.7-15.6,3.7c-8.3,0-15-2-20.1-5.8c-5.1-3.9-8.1-9.2-8.8-15.9H19c0.5,2.1,1.8,3.8,3.8,5c2,1.2,4.5,1.9,7.4,1.9
			c3.5,0,6.4-1,8.5-3c2.1-2,3.1-5.3,3.1-9.8v-7.9c-1.7,2.6-4,4.7-6.9,6.3c-2.9,1.6-6.4,2.5-10.3,2.5c-4.6,0-8.8-1.2-12.5-3.5
			c-3.7-2.4-6.7-5.7-8.9-10.1C1.1,74.5,0,69.4,0,63.7C0,58,1.1,52.9,3.2,48.6c2.2-4.3,5.1-7.7,8.9-10c3.7-2.3,7.9-3.5,12.5-3.5
			C28.5,35.1,32,35.9,35,37.5z M38.2,53.7C35.9,51.2,33,50,29.6,50s-6.3,1.2-8.6,3.7c-2.4,2.4-3.5,5.8-3.5,10
			c0,4.3,1.2,7.7,3.5,10.2c2.4,2.5,5.2,3.8,8.6,3.8s6.3-1.2,8.6-3.7c2.4-2.5,3.6-5.8,3.6-10.1C41.8,59.5,40.6,56.2,38.2,53.7z"/>
		<path class="st1" d="M66.5,27.5c-1.9-1.8-2.9-4-2.9-6.5c0-2.7,0.9-4.9,2.9-6.7c1.9-1.8,4.3-2.6,7.3-2.6c2.9,0,5.4,0.9,7.2,2.6
			c1.9,1.8,2.9,4,2.9,6.7c0,2.6-0.9,4.8-2.9,6.5c-1.9,1.8-4.3,2.7-7.2,2.7C70.9,30.1,68.4,29.2,66.5,27.5z M82.4,35.9v55.8H65.3
			V35.9H82.4z"/>
		<path class="st1" d="M99.4,89c-4.4-2.3-7.8-5.7-10.3-10c-2.5-4.3-3.8-9.4-3.8-15.2c0-5.7,1.3-10.8,3.8-15.1c2.5-4.4,6-7.7,10.4-10
			c4.4-2.3,9.3-3.5,14.8-3.5c5.5,0,10.4,1.2,14.8,3.5c4.4,2.3,7.9,5.7,10.4,10c2.5,4.4,3.8,9.4,3.8,15.1c0,5.7-1.3,10.8-3.8,15.2
			c-2.6,4.4-6.1,7.7-10.5,10c-4.4,2.3-9.4,3.5-14.9,3.5C108.7,92.5,103.8,91.4,99.4,89z M122.5,74.1c2.3-2.4,3.5-5.8,3.5-10.3
			c0-4.5-1.1-7.9-3.4-10.3c-2.2-2.4-5-3.6-8.2-3.6c-3.3,0-6.1,1.2-8.3,3.5c-2.2,2.4-3.3,5.8-3.3,10.3c0,4.5,1.1,7.9,3.2,10.3
			c2.2,2.4,4.9,3.6,8.1,3.6C117.5,77.7,120.2,76.5,122.5,74.1z"/>
		<path class="st1" d="M157.1,89c-4.4-2.3-7.8-5.7-10.3-10c-2.5-4.3-3.8-9.4-3.8-15.2c0-5.7,1.3-10.8,3.8-15.1
			c2.5-4.4,6-7.7,10.4-10c4.4-2.3,9.3-3.5,14.8-3.5c5.5,0,10.4,1.2,14.8,3.5c4.4,2.3,7.9,5.7,10.4,10c2.5,4.4,3.8,9.4,3.8,15.1
			c0,5.7-1.3,10.8-3.8,15.2c-2.6,4.4-6.1,7.7-10.5,10c-4.4,2.3-9.4,3.5-14.8,3.5C166.4,92.5,161.5,91.4,157.1,89z M180.2,74.1
			c2.3-2.4,3.5-5.8,3.5-10.3c0-4.5-1.1-7.9-3.4-10.3c-2.2-2.4-5-3.6-8.2-3.6c-3.3,0-6.1,1.2-8.3,3.5c-2.2,2.4-3.3,5.8-3.3,10.3
			c0,4.5,1.1,7.9,3.2,10.3c2.2,2.4,4.9,3.6,8.2,3.6C175.2,77.7,177.9,76.5,180.2,74.1z"/>
		<path class="st1" d="M261.2,35.9l-35,82.3h-18.4l12.8-28.4l-22.7-53.9H217l12.9,34.9l12.8-34.9H261.2z"/>
		<path class="st1" d="M311.1,41.7c3.9,4.2,5.8,10,5.8,17.5v32.6h-17V61.4c0-3.7-1-6.6-2.9-8.7c-1.9-2.1-4.5-3.1-7.8-3.1
			c-3.3,0-5.9,1-7.8,3.1c-1.9,2.1-2.9,5-2.9,8.7v30.3h-17.1v-74h17.1v25.7c1.7-2.5,4.1-4.4,7.1-5.9c3-1.5,6.4-2.2,10.1-2.2
			C302.1,35.3,307.2,37.4,311.1,41.7z"/>
	</g>
</g>
</svg>
