<svg xmlns="http://www.w3.org/2000/svg" width="151.297" height="167.399" viewBox="0 0 151.297 167.399">
  <g id="Group_158" data-name="Group 158" transform="translate(-298.351 -67.601)">
    <g id="Group_127" data-name="Group 127" transform="translate(-756 -173)">
      <g id="Union_12" data-name="Union 12" transform="translate(1090 288)" fill="#051f50">
        <path d="M 58.02890396118164 80.99980163574219 L 41.00040817260742 80.99980163574219 L 23.97180557250977 80.99980163574219 C 23.88937950134277 79.23339080810547 23.63461112976074 76.47221374511719 22.89450836181641 73.20423126220703 C 22.15087890625 69.92066192626953 21.06707954406738 66.79035949707031 19.67322158813477 63.90028762817383 C 17.92133522033691 60.26790237426758 15.67296504974365 57.0078010559082 12.99053573608398 54.21052932739258 C 12.72835063934326 53.93710327148438 12.49787902832031 53.67235946655273 12.30555057525635 53.42362976074219 L 12.2553071975708 53.35865783691406 L 12.19990730285645 53.29801559448242 C 5.62240743637085 46.0989875793457 2.000007629394531 36.75950241088867 2.000007629394531 27.00000190734863 C 2.000007629394531 21.73407363891602 3.030893325805664 16.62673187255859 5.064022064208984 11.81985950469971 C 7.028207778930664 7.175945281982422 9.840550422668457 3.00488805770874 13.42292213439941 -0.5774832367897034 C 17.00529289245605 -4.159854888916016 21.17634963989258 -6.972197532653809 25.82026481628418 -8.936383247375488 C 30.62713623046875 -10.96951198577881 35.73447799682617 -12.00039768218994 41.00040817260742 -12.00039768218994 C 46.26612091064453 -12.00039768218994 51.3732795715332 -10.96951198577881 56.18002319335938 -8.936397552490234 C 60.82380676269531 -6.972197532653809 64.99479675292969 -4.159854888916016 68.57709503173828 -0.5774975419044495 C 72.159423828125 3.00488805770874 74.97173309326172 7.175945281982422 76.93590545654297 11.81984519958496 C 78.96903991699219 16.62674522399902 79.99990844726562 21.73408889770508 79.99990844726562 27.00000190734863 C 79.99990844726562 36.75944519042969 76.37734985351562 46.0991325378418 69.79955291748047 53.29860305786133 L 69.74433898925781 53.35904693603516 L 69.69423675537109 53.42380142211914 C 69.50146484375 53.67295837402344 69.27103424072266 53.93766021728516 69.00936126708984 54.21052932739258 C 66.32693481445312 57.0078010559082 64.07860565185547 60.2679328918457 62.32682037353516 63.90032958984375 C 60.93303680419922 66.7904052734375 59.84933471679688 69.92071533203125 59.1058349609375 73.20431518554688 C 58.36586761474609 76.47231292724609 58.11123657226562 79.23338317871094 58.02890396118164 80.99980163574219 Z" stroke="none"/>
        <path d="M 56.166015625 78.99980163574219 C 56.32228088378906 77.28970336914062 56.61468887329102 75.14980316162109 57.15521621704102 72.76263427734375 C 57.93206787109375 69.33170318603516 59.06595230102539 66.05770111083984 60.52536773681641 63.03155136108398 C 62.36871719360352 59.20925140380859 64.73748016357422 55.77570343017578 67.56583404541016 52.82626724243164 C 67.77878570556641 52.60418701171875 67.96269989013672 52.39343643188477 68.11246490478516 52.19986724853516 L 68.21263122558594 52.07041931152344 L 68.32303619384766 51.9495849609375 C 74.56324768066406 45.11958694458008 77.99990081787109 36.25898742675781 77.99990081787109 27.00000190734863 C 77.99990081787109 22.00320243835449 77.02218627929688 17.15798568725586 75.09388732910156 12.598952293396 C 73.23053741455078 8.193435668945312 70.56216430664062 4.236052513122559 67.16286468505859 0.8367024660110474 C 63.76358413696289 -2.56261420249939 59.80628204345703 -5.231030941009521 55.40090179443359 -7.09439754486084 C 50.84201812744141 -9.02268123626709 45.99698257446289 -10.00039768218994 41.00040054321289 -10.00039768218994 C 36.00358200073242 -10.00039768218994 31.15836715698242 -9.022664070129395 26.59934997558594 -7.094380855560303 C 22.19384956359863 -5.231014251708984 18.2364673614502 -2.562597513198853 14.83713340759277 0.8367357850074768 C 11.43780040740967 4.236069202423096 8.769383430480957 8.193452835083008 6.906017303466797 12.598952293396 C 4.977733612060547 17.15796852111816 4.000000476837158 22.0031852722168 4.000000476837158 27.00000190734863 C 4.000000476837158 36.25903701782227 7.436483860015869 45.11941909790039 13.67641735076904 51.94897079467773 L 13.78723335266113 52.07025146484375 L 13.88771724700928 52.20021820068359 C 14.03691673278809 52.39316940307617 14.22071743011475 52.60378646850586 14.43406677246094 52.82626724243164 C 17.26239967346191 55.77568435668945 19.63118362426758 59.20920181274414 21.47463417053223 63.03146743774414 C 22.93411636352539 66.05758666992188 24.06809997558594 69.33156585693359 24.84510040283203 72.76248931884766 C 25.38572311401367 75.14964294433594 25.67824554443359 77.28971862792969 25.83459854125977 78.99980163574219 L 56.166015625 78.99980163574219 M 60.00030136108398 82.99980163574219 L 22.0004997253418 82.99980163574219 C 22.0004997253418 82.99980163574219 22.66740036010742 67.19129943847656 11.54700088500977 55.59480285644531 C 11.23138332366943 55.26568603515625 10.9578332901001 54.95025253295898 10.72338390350342 54.64705276489258 C 4.062633514404297 47.35690307617188 4.089355343239731e-07 37.65306854248047 4.089355343239731e-07 27.00000190734863 C 4.089355343239731e-07 4.356002330780029 18.35639953613281 -14.00039768218994 41.00040054321289 -14.00039768218994 C 63.64350128173828 -14.00039768218994 81.99990081787109 4.356002330780029 81.99990081787109 27.00000190734863 C 81.99990081787109 37.65306854248047 77.93673706054688 47.35746765136719 71.27608489990234 54.64763641357422 C 71.04196929931641 54.95021820068359 70.76783752441406 55.26638412475586 70.45290374755859 55.59480285644531 C 59.33250045776367 67.19129943847656 60.00030136108398 82.99980163574219 60.00030136108398 82.99980163574219 Z" stroke="none" fill="#051f50"/>
      </g>
      <path id="Subtraction_1" data-name="Subtraction 1" d="M32.5,22a11.6,11.6,0,0,1-7.323-2.582A10.813,10.813,0,0,1,21.345,13h22.31a10.813,10.813,0,0,1-3.832,6.418A11.6,11.6,0,0,1,32.5,22Z" transform="translate(1098.5 384)" fill="#fff" stroke="#051f50" stroke-width="4"/>
      <line id="Line_30" data-name="Line 30" x2="34" transform="translate(1114 397)" fill="none" stroke="#051f50" stroke-linecap="round" stroke-width="4"/>
      <line id="Line_31" data-name="Line 31" x2="34" transform="translate(1114 388)" fill="none" stroke="#051f50" stroke-linecap="round" stroke-width="4"/>
      <line id="Line_32" data-name="Line 32" x2="34" transform="translate(1114 379)" fill="none" stroke="#051f50" stroke-linecap="round" stroke-width="4"/>
    </g>
    <g id="Group_131" data-name="Group 131" transform="translate(-107.125 -221.625)">
      <line id="Line_37" data-name="Line 37" x1="0.25" y1="21.25" transform="translate(481 291.25)" fill="none" stroke="#051f50" stroke-linecap="round" stroke-width="4"/>
      <line id="Line_38" data-name="Line 38" x1="0.25" y1="21.25" transform="translate(532.55 311.274) rotate(45)" fill="none" stroke="#051f50" stroke-linecap="round" stroke-width="4"/>
      <line id="Line_41" data-name="Line 41" x1="0.25" y2="21.25" transform="translate(444.726 326.3) rotate(135)" fill="none" stroke="#051f50" stroke-linecap="round" stroke-width="4"/>
      <line id="Line_39" data-name="Line 39" x1="0.25" y1="21.25" transform="translate(554.75 361.75) rotate(90)" fill="none" stroke="#051f50" stroke-linecap="round" stroke-width="4"/>
      <line id="Line_40" data-name="Line 40" x1="0.25" y2="21.25" transform="translate(428.75 361.75) rotate(90)" fill="none" stroke="#051f50" stroke-linecap="round" stroke-width="4"/>
    </g>
  </g>
</svg>
