<?xml version="1.0" encoding="utf-8"?>
<!-- Generator: Adobe Illustrator 26.3.1, SVG Export Plug-In . SVG Version: 6.00 Build 0)  -->
<svg version="1.1" id="Layer_1" xmlns="http://www.w3.org/2000/svg" xmlns:xlink="http://www.w3.org/1999/xlink" x="0px" y="0px"
	 viewBox="0 0 88 144" style="enable-background:new 0 0 88 144;" xml:space="preserve">
<style type="text/css">
	.st0{fill:#282828;}
	.st1{enable-background:new    ;}
</style>
<g id="Group_649" transform="translate(211 240)">
	<g id="Group_647" transform="translate(477 16)">
		<path id="Ellipse_193" class="st0" d="M-670-224c0,14.4,11.6,26,26,26s26-11.6,26-26s-11.6-26-26-26C-658.4-250-670-238.4-670-224
			 M-676-224c0-17.7,14.3-32,32-32s32,14.3,32,32s-14.3,32-32,32S-676-206.3-676-224z"/>
		<path id="Ellipse_194" class="st0" d="M-670-192c0,14.4,11.6,26,26,26s26-11.6,26-26s-11.6-26-26-26C-658.4-218-670-206.4-670-192
			 M-676-192c0-17.7,14.3-32,32-32s32,14.3,32,32s-14.3,32-32,32S-676-174.3-676-192z"/>
	</g>
	<circle id="Ellipse_197" class="st0" cx="-167" cy="-192" r="8"/>
	<path id="Intersection_10" class="st0" d="M-167-202c-8,0-15.6,3.7-20.5,10c4.9,6.3,12.5,10,20.5,10c8,0,15.6-3.7,20.5-10
		C-151.4-198.3-159-202-167-202 M-167-208c11.4,0,22,6.1,27.7,16c-5.7,9.9-16.3,16-27.7,16c-11.4,0-22-6.1-27.7-16
		C-189-201.9-178.4-208-167-208z"/>
</g>
<g class="st1">
	<path class="st0" d="M11.4,131.4c-0.2-0.4-0.5-0.7-0.9-0.9c-0.4-0.2-0.8-0.4-1.2-0.6s-0.9-0.3-1.3-0.4c-0.6-0.2-1.2-0.4-1.8-0.7
		s-1.2-0.6-1.7-1c-0.5-0.4-0.9-0.9-1.3-1.4s-0.5-1.2-0.5-1.9s0.2-1.4,0.5-2s0.7-1.1,1.3-1.5s1.1-0.7,1.8-0.9s1.3-0.3,2-0.3
		c0.7,0,1.5,0.1,2.1,0.4s1.3,0.6,1.8,1s1,1,1.3,1.6s0.5,1.3,0.5,2.1h-2.2c-0.1-0.5-0.2-0.9-0.4-1.3s-0.4-0.7-0.7-1s-0.7-0.5-1.1-0.7
		s-0.9-0.2-1.4-0.2c-0.4,0-0.8,0.1-1.2,0.2s-0.7,0.3-1,0.5c-0.3,0.2-0.6,0.5-0.7,0.9s-0.3,0.7-0.3,1.2c0,0.5,0.1,0.9,0.4,1.2
		s0.6,0.6,0.9,0.9c0.4,0.2,0.8,0.4,1.2,0.6s0.8,0.3,1.2,0.4c0.6,0.2,1.3,0.4,1.9,0.7s1.2,0.6,1.7,1.1c0.5,0.4,0.9,0.9,1.2,1.5
		s0.5,1.2,0.5,2c0,0.8-0.2,1.4-0.5,2s-0.8,1-1.3,1.4c-0.5,0.4-1.1,0.7-1.8,0.9s-1.4,0.3-2,0.3c-0.8,0-1.6-0.1-2.4-0.4
		s-1.5-0.7-2-1.2c-0.5-0.4-0.9-1-1.2-1.6s-0.5-1.3-0.5-2h2.2c0.1,0.5,0.2,1,0.4,1.4s0.5,0.8,0.8,1c0.3,0.3,0.7,0.5,1.2,0.7
		s0.9,0.2,1.5,0.2c0.4,0,0.8-0.1,1.2-0.2s0.8-0.3,1.1-0.5c0.3-0.2,0.6-0.5,0.8-0.8s0.3-0.7,0.3-1.2
		C11.8,132.2,11.6,131.7,11.4,131.4z"/>
	<path class="st0" d="M22.4,128.5l3-8.5h2.7V137H26v-6.8l0.2-7.1l-3.2,9.2h-1.2l-2.9-8.9l0.2,6.9v6.8h-2.1v-17.1h2.7L22.4,128.5z"/>
	<path class="st0" d="M34,137h-2.2v-17.1h5.5c0.8,0,1.5,0.1,2.2,0.4s1.3,0.6,1.8,1s0.9,1,1.2,1.6s0.5,1.4,0.5,2.2s-0.2,1.5-0.5,2.2
		s-0.7,1.2-1.2,1.6s-1.1,0.8-1.8,1s-1.4,0.3-2.2,0.4H34V137z M37.4,128.4c0.5,0,1-0.1,1.4-0.2s0.8-0.4,1.1-0.7s0.6-0.6,0.7-1
		s0.3-0.9,0.3-1.4s-0.1-1-0.3-1.4s-0.4-0.8-0.7-1.1c-0.3-0.3-0.7-0.5-1.1-0.7s-0.9-0.2-1.4-0.2H34v6.7H37.4z"/>
	<path class="st0" d="M56.8,135.2v1.8H46.3v-17.1h2.2v15.2H56.8z"/>
	<path class="st0" d="M70.9,134c-0.3,0.7-0.7,1.2-1.2,1.7c-0.5,0.5-1.1,0.8-1.7,1.1s-1.4,0.4-2.2,0.4c-0.7,0-1.3-0.1-1.9-0.3
		s-1.1-0.5-1.5-0.8c-0.5-0.4-0.8-0.8-1.2-1.2s-0.6-1-0.8-1.6c-0.2-0.6-0.4-1.2-0.5-1.8s-0.2-1.2-0.2-1.9v-2.4c0-0.6,0.1-1.3,0.2-1.9
		s0.3-1.2,0.5-1.8c0.2-0.6,0.5-1.1,0.8-1.6s0.7-0.9,1.2-1.2c0.4-0.4,1-0.6,1.5-0.8s1.2-0.3,1.9-0.3c0.9,0,1.6,0.1,2.3,0.4
		s1.2,0.6,1.7,1.1c0.5,0.5,0.9,1.1,1.2,1.7s0.5,1.4,0.6,2.2h-2.2c-0.1-0.5-0.2-1-0.4-1.4s-0.4-0.8-0.7-1.2s-0.6-0.6-1.1-0.8
		s-0.9-0.3-1.5-0.3c-0.5,0-1,0.1-1.4,0.3s-0.7,0.4-1,0.7c-0.3,0.3-0.5,0.6-0.7,1s-0.3,0.8-0.5,1.2s-0.2,0.9-0.3,1.3
		s-0.1,0.9-0.1,1.3v2.4c0,0.4,0,0.9,0.1,1.3s0.1,0.9,0.3,1.3c0.1,0.4,0.3,0.8,0.5,1.2s0.4,0.7,0.7,1c0.3,0.3,0.6,0.5,1,0.7
		s0.8,0.3,1.4,0.3c0.6,0,1.1-0.1,1.5-0.3s0.8-0.4,1.1-0.8c0.3-0.3,0.5-0.7,0.7-1.1s0.3-0.9,0.4-1.4h2.2
		C71.4,132.7,71.2,133.4,70.9,134z"/>
	<path class="st0" d="M81.1,121.8V137H79v-15.2h-5.3v-1.9h12.7v1.9H81.1z"/>
</g>
</svg>
